<?xml version="1.0" encoding="UTF-8" standalone="no"?>
<!-- Created with Inkscape (http://www.inkscape.org/) -->

<svg
   version="1.1"
   id="svg2"
   width="1500"
   height="1500"
   viewBox="0 0 1500 1500"
   sodipodi:docname="avatar.svg"
   inkscape:version="1.2 (dc2aedaf03, 2022-05-15)"
   xmlns:inkscape="http://www.inkscape.org/namespaces/inkscape"
   xmlns:sodipodi="http://sodipodi.sourceforge.net/DTD/sodipodi-0.dtd"
   xmlns="http://www.w3.org/2000/svg"
   xmlns:svg="http://www.w3.org/2000/svg">
  <defs
     id="defs6" />
  <sodipodi:namedview
     id="namedview4"
     pagecolor="#ffffff"
     bordercolor="#000000"
     borderopacity="0.25"
     inkscape:showpageshadow="2"
     inkscape:pageopacity="0.0"
     inkscape:pagecheckerboard="0"
     inkscape:deskcolor="#d1d1d1"
     showgrid="false"
     inkscape:zoom="0.19728279"
     inkscape:cx="172.34144"
     inkscape:cy="484.07668"
     inkscape:window-width="1423"
     inkscape:window-height="512"
     inkscape:window-x="1919"
     inkscape:window-y="417"
     inkscape:window-maximized="0"
     inkscape:current-layer="g8" />
  <g
     inkscape:groupmode="layer"
     inkscape:label="Image"
     id="g8">
    <path
       class="logo_path"
       style="fill:#00ff00"
       d="M 732.5,1481.3487 C 563.79501,1477.4916 399.76269,1414.1968 272,1303.6564 250.02545,1284.644 216.83963,1251.5975 197.80337,1229.7713 102.80022,1120.8444 41.564422,983.35242 23.985413,839.5 c -7.022906,-57.46979 -7.022906,-121.53021 0,-179 C 41.498566,517.18648 101.79257,381.2822 196.34362,272 215.35602,250.02545 248.40251,216.83963 270.22873,197.80337 379.15561,102.80022 516.64758,41.564422 660.5,23.985413 c 57.46979,-7.022906 121.53021,-7.022906 179,0 143.85242,17.579009 281.3444,78.814807 390.2713,173.817957 21.8262,19.03626 54.8727,52.22208 73.8851,74.19663 94.551,109.2822 154.845,245.18648 172.3582,388.5 3.7593,30.7633 5.1142,54.47472 5.1142,89.5 0,35.02528 -1.3549,58.7367 -5.1142,89.5 -17.579,143.85242 -78.8148,281.3444 -173.818,390.2713 -28.9537,33.1972 -71.4596,73.3852 -105.1966,99.4601 -85.1979,65.8484 -187.5226,113.2403 -294,136.1668 -52.99759,11.4113 -115.06615,17.2179 -170.5,15.9505 z m 75,-3.8253 c 57.47848,-4.6818 110.66156,-15.0826 163.27482,-31.9309 132.02228,-42.2773 245.60028,-117.9328 336.41908,-224.0925 37.0837,-43.3478 72.9358,-98.3778 98.3766,-151 42.1049,-87.09065 64.8452,-171.51942 72.5878,-269.5 1.58,-19.99451 1.58,-82.00549 0,-102 -4.8451,-61.31326 -15.3192,-115.91782 -32.5658,-169.77482 C 1403.3152,397.20286 1327.6597,283.62491 1221.5,192.80609 1178.1522,155.72236 1123.1222,119.87031 1070.5,94.429512 983.40935,52.324587 898.98058,29.584341 801,21.841738 c -19.99451,-1.580002 -82.00549,-1.580002 -102,0 C 601.01942,29.584341 516.59065,52.324587 429.5,94.429512 285.09128,164.24548 164.24548,285.09128 94.429512,429.5 52.304701,516.63178 29.587997,600.97314 21.841738,699 c -1.580002,19.99451 -1.580002,82.00549 0,102 7.742603,97.98058 30.482849,182.40935 72.587774,269.5 C 175.18146,1237.5289 321.82911,1370.1401 497,1434.5384 c 73.9481,27.1856 139.44876,40.1929 226,44.8799 13.3751,0.7243 67.14865,-0.4816 84.5,-1.8949 z m -109,-1.0946 c -108.29726,-8.332 -209.6803,-38.4754 -302,-89.7911 C 223.71591,1290.5961 98.002952,1129.4572 46.470846,937.97029 23.228986,851.60643 16.223165,756.26938 26.558656,667 37.546561,572.09561 67.306502,479.3568 113.36227,396.5 209.40392,223.71591 370.54281,98.002952 562.02971,46.470846 648.39357,23.228986 743.73062,16.223165 833,26.558656 c 94.90439,10.987905 187.6432,40.747846 270.5,86.803614 205.5047,114.22934 342.8681,319.80118 369.9413,553.63773 8.8829,76.72234 4.7109,162.28735 -11.5296,236.47029 -15.2883,69.83334 -41.2452,138.81021 -75.274,200.02971 -114.2293,205.5047 -319.8011,342.8681 -553.6377,369.9413 -39.6257,4.5879 -97.10515,5.8646 -134.5,2.9875 z m 99,-6.5086 c 95.15455,-6.2609 188.63305,-31.4504 272.543,-73.4417 47.4038,-23.7224 79.2078,-43.5541 120.6121,-75.2088 46.0979,-35.2431 96.4348,-85.7171 131.9103,-132.2697 52.3591,-68.708 89.7644,-140.7746 115.7454,-223 22.558,-71.3921 32.927,-139.41226 32.927,-216 0,-54.94459 -4.5836,-98.83336 -15.8745,-152 -19.1371,-90.11344 -59.1509,-182.57713 -111.6498,-258 -26.3608,-37.87157 -50.4395,-66.58728 -83.9089,-100.06822 -31.9583,-31.96934 -60.657,-56.10401 -98.8163,-83.10111 C 1115.9194,124.94501 1053.3314,92.533337 998.31701,72.59004 915.47363,42.558437 837.3078,28.762203 750,28.762203 c -54.94459,0 -98.83336,4.583628 -152,15.874481 C 507.88397,63.774376 415.37732,103.80771 340,156.28921 302.73518,182.23485 272.75981,207.3561 240.19536,239.93178 206.72596,273.41272 182.64735,302.12843 156.28645,340 103.78758,415.42287 63.773826,507.88656 44.636684,598 33.345831,651.16664 28.762203,695.05541 28.762203,750 c 0,76.58774 10.368974,144.6079 32.926979,216 25.981046,82.2254 63.386328,154.292 115.745418,223 26.09053,34.2372 66.95631,77.6424 100.28233,106.514 35.35325,30.6278 79.4766,61.7058 117.95777,83.0828 114.81725,63.783 238.21389,95.0028 366.3253,92.6817 11.275,-0.2043 27.25,-0.8155 35.5,-1.3583 z m -77.5,-0.5096 c -3.025,-0.2015 -12.7,-0.851 -21.5,-1.4433 -127.43819,-8.5777 -254.62912,-53.5642 -359.93642,-127.3067 -38.06741,-26.6571 -65.6383,-49.9413 -99.23402,-83.8052 -32.89577,-33.1584 -54.12431,-58.4816 -79.99013,-95.419 C 105.65563,1084.7738 65.993378,993.8835 46.490887,902.83189 34.867405,848.56514 30.538582,807.09263 30.538582,750 c 0,-45.79284 2.842079,-81.6342 9.47588,-119.5 C 63.329549,497.41726 118.72778,379.80074 205.5735,279 222.90664,258.88164 261.31875,220.5793 281,203.78903 381.79805,117.79723 498.40188,63.157051 630.5,40.014462 c 37.8658,-6.633801 73.70716,-9.47588 119.5,-9.47588 57.09263,0 98.56514,4.328823 152.83189,15.952305 C 992.3726,65.669756 1086.4823,106.48446 1159.5,157.806 c 37.8079,26.5738 64.4802,48.90875 97.3554,81.52356 33.8639,33.59572 57.1481,61.16661 83.8052,99.23402 53.6838,76.66262 93.346,167.55292 112.8485,258.60453 11.6235,54.26675 15.9523,95.73926 15.9523,152.83189 0,45.79284 -2.8421,81.6342 -9.4759,119.5 -23.1426,132.0981 -77.7827,248.7019 -163.7745,349.5 -16.7903,19.6813 -55.0926,58.0934 -75.211,75.4265 -75.4825,65.0325 -160.7665,112.5652 -255.5,142.4018 -52.09412,16.4071 -100.78603,25.9162 -157.5,30.7583 -16.41282,1.4013 -75.85127,2.6333 -88,1.824 z m 79.3648,-2.9306 c 48.81306,-3.6995 91.66613,-10.6961 132.1352,-21.5735 108.8956,-29.2695 203.3861,-78.8167 287.2288,-150.6117 19.7915,-16.9476 60.6409,-58.0285 77.3564,-77.7948 71.828,-84.9374 119.6773,-176.5712 148.8213,-285 30.7611,-114.44521 30.7611,-248.55479 0,-363 -29.2695,-108.8956 -78.8167,-203.38612 -150.6117,-287.22882 -16.9476,-19.79144 -58.0285,-60.64083 -77.7948,-77.35637 -85.0453,-71.91915 -176.4336,-119.640298 -285,-148.82128 -114.44521,-30.761112 -248.55479,-30.761112 -363,0 -108.42877,29.143987 -200.06255,76.99331 -285,148.82128 -19.76633,16.71554 -60.84722,57.56493 -77.79476,77.35637 C 133.91017,365.11388 84.362993,459.6044 55.09353,568.5 c -30.761112,114.44521 -30.761112,248.55479 0,363 29.143987,108.4288 76.99331,200.0626 148.82128,285 16.71554,19.7663 57.56493,60.8472 77.35637,77.7948 83.84403,71.7962 178.25616,121.3032 287.22882,150.6146 39.93,10.7403 86.94323,18.3581 135.5,21.9556 19.83152,1.4693 73.77154,1.2515 95.3648,-0.385 z m -55.13691,-55.5746 c -7.69849,-1.011 -15.35046,-5.1649 -21.09738,-11.453 -6.51693,-7.1305 -9.2884,-14.4267 -9.2884,-24.4524 0,-10.9606 2.85533,-17.8725 10.57038,-25.5875 7.71505,-7.7151 14.6269,-10.5704 25.58751,-10.5704 10.37017,0 17.37702,2.7609 25.06046,9.8744 l 5.9913,5.5468 195.22412,-85.2361 c 107.37322,-46.8799 195.55052,-85.5381 195.94952,-85.9071 0.399,-0.369 -95.0014,-96.397 -212.00084,-213.39554 L 747.49825,757 533.50896,970.99104 319.51967,1184.9821 l 9.74017,9.7768 c 5.35709,5.3773 9.74016,10.4681 9.74016,11.3128 0,1.9292 -6.09518,7.9283 -8.05526,7.9283 C 328.9835,1214 281,1165.9045 281,1163.9387 c 0,-1.9239 6.08374,-7.9387 8.02972,-7.9387 0.78897,0 5.83421,4.3832 11.21164,9.7405 l 9.77714,9.7404 L 519.25895,966.24045 728.4994,757 H 422.33149 C 253.93914,757 115.45177,756.72686 114.58179,756.39301 113.7118,756.05917 113,755.04613 113,754.14182 c 0,-0.90431 70.87292,-72.51605 157.49539,-159.13721 L 427.99078,437.5116 363.77238,373.26452 c -58.91955,-58.94587 -64.08612,-64.37936 -62.61524,-65.85023 0.88174,-0.88174 45.41959,-20.02625 98.97301,-42.54337 53.55342,-22.51711 151.49072,-63.70979 217.63844,-91.53928 l 120.26859,-50.59908 -5.01859,-5.30642 C 724.9342,108.87809 726.77845,107.84094 740,113.5 c 4.49748,1.925 8.99748,3.5 10,3.5 1.00252,0 5.50252,-1.575 10,-3.5 13.22399,-5.66011 15.06604,-4.62216 6.97666,3.93116 l -5.02334,5.31145 8.27334,3.53853 C 774.777,128.22733 860.175,164.55652 960,207.01268 c 99.825,42.45615 192.9258,82.06363 206.8907,88.01662 13.965,5.95299 26.1027,11.53554 26.9728,12.40566 1.4428,1.44274 -3.9628,7.12957 -61.3847,64.57834 l -62.9668,62.99629 158.744,158.74638 C 1315.5652,681.06648 1387,753.24118 1387,754.14419 c 0,0.90301 -0.7118,1.91498 -1.5818,2.24882 C 1384.5482,756.72686 1244.9361,757 1075.1691,757 H 766.50175 L 980.25088,970.75087 C 1097.8129,1088.3139 1194,1185.2338 1194,1186.1284 c 0,0.8947 -0.5625,2.0562 -1.25,2.581 -0.6875,0.5249 -92.4588,40.7326 -203.93628,89.3505 l -202.68628,88.3961 0.0193,8.022 c 0.0277,11.5104 -2.6968,18.2471 -10.55922,26.1095 -8.76673,8.7667 -18.58134,11.9959 -31.35962,10.3179 z M 764.5,1406.6158 c 6.77888,-3.1027 14.08204,-10.463 17.26053,-17.3955 2.16425,-4.7203 2.63437,-7.2426 2.68936,-14.4286 0.0366,-4.7895 0.51291,-9.1057 1.05837,-9.5915 0.54546,-0.4858 92.22753,-40.667 203.73793,-89.2917 111.51041,-48.6247 202.74791,-88.9553 202.75001,-89.6235 0,-0.6683 -96.2962,-97.4573 -213.9962,-215.08669 C 860.3,853.56892 764,756.80318 764,756.16334 764,755.28138 839.1019,755 1074.5,755 c 170.775,0 310.5,-0.33557 310.5,-0.74572 0,-0.41014 -71.325,-72.07598 -158.5,-159.25742 C 1139.325,507.81541 1068,435.82192 1068,435.01131 c 0,-0.8106 27.9,-29.38709 62,-63.50331 34.1,-34.11621 62,-62.55682 62,-63.20135 0,-0.64453 -0.9144,-1.46209 -2.0319,-1.81679 -3.1243,-0.99161 -429.10823,-182.29665 -429.69691,-182.88534 -0.2847,-0.2847 1.38329,-2.67469 3.70665,-5.31108 5.21795,-5.92097 3.88874,-6.49594 -5.39149,-2.33218 -3.72503,1.67131 -7.43712,3.03874 -8.24908,3.03874 -0.81197,0 -4.81403,-1.3895 -8.89347,-3.08777 -4.07944,-1.69828 -7.9066,-2.92463 -8.5048,-2.72523 -0.59821,0.1994 0.81956,2.52925 3.1506,5.17745 2.91845,3.31554 3.86591,5.04501 3.04258,5.55386 -0.65761,0.40643 -99.05137,41.87857 -218.65278,92.16032 -119.60142,50.28176 -217.46214,91.87272 -217.46826,92.42437 -0.006,0.55165 28.14139,29.12665 62.55005,63.5 34.40865,34.37335 63.03201,63.34527 63.60746,64.38205 0.91786,1.65369 -18.29818,21.23096 -156.56119,159.50431 C 185.92336,682.57996 115,753.84418 115,754.25431 115,754.66444 253.6,755 423,755 c 246.16076,0 308,0.25163 308,1.25326 C 731,757.97743 311.82907,1177 310.10429,1177 c -0.76144,0 -5.73567,-4.275 -11.05384,-9.5 -5.31817,-5.225 -10.06364,-9.5 -10.54548,-9.5 -1.27435,0 -5.50497,4.1628 -5.50497,5.4167 0,1.3161 47.11577,48.5833 48.42774,48.5833 1.29775,0 5.57226,-4.1154 5.57226,-5.3648 0,-0.559 -4.275,-5.3675 -9.5,-10.6856 -5.225,-5.3182 -9.5,-10.2925 -9.5,-11.054 0,-1.456 425.12617,-427.25569 428.38632,-429.06501 1.65593,-0.91901 27.94786,25.01184 215.26767,212.31127 117.35971,117.34694 213.26091,213.97644 213.11371,214.73224 -0.1975,1.0139 -351.47795,155.5103 -389.49854,171.305 l -5.23085,2.173 -5.0132,-5.2286 c -7.3044,-7.6184 -14.22072,-10.5281 -25.02511,-10.5281 -7.06664,0 -9.46462,0.4441 -14.22034,2.6334 -7.08992,3.2639 -14.30202,10.5273 -17.64558,17.7712 -3.67722,7.9668 -3.63644,20.1153 0.0947,28.2203 4.42765,9.618 14.2974,17.7194 24.11493,19.7945 6.21426,1.3134 16.4718,0.2028 22.15625,-2.399 z m -24.36054,0.2945 c -7.8447,-2.3922 -16.08352,-9.5771 -20.18227,-17.6004 C 717.85758,1385.2 717.5,1383.1175 717.5,1375 c 0,-8.1022 0.35938,-10.2034 2.44247,-14.2805 3.17608,-6.2163 9.52122,-12.5853 15.66048,-15.7195 4.20671,-2.1476 6.23626,-2.5 14.39705,-2.5 11.53645,0 16.46398,2.087 24.60785,10.4222 l 5.29773,5.4223 23.29721,-10.1547 C 1078.1366,1228.3524 1176.5382,1184.9616 1176.8517,1183.4269 1177.3339,1181.0664 750.34223,754 747.5,754 745.14222,754 316,1182.628 316,1184.983 c 0,0.8147 4.38282,5.8805 9.73959,11.2575 8.25777,8.2889 9.57273,10.0413 8.64282,11.5179 -0.60323,0.9579 -1.72354,1.8628 -2.48959,2.011 -0.76605,0.1481 -11.6953,-10.0455 -24.28723,-22.6525 -22.99273,-23.0203 -24.51987,-25.0614 -20.03823,-26.7811 1.13629,-0.4361 4.4717,2.2294 11.29057,9.0227 5.32282,5.3028 10.3452,9.6415 11.16085,9.6415 C 312.06148,1179 733,757.89959 733,755.8561 c 0,-0.90317 -0.7118,-1.91527 -1.58179,-2.24911 C 730.54823,753.27314 592.06268,753 423.67255,753 H 117.50868 L 274.75434,595.7425 C 361.23945,509.25088 432,438.04662 432,437.51081 c 0,-0.53581 -28.66637,-29.65356 -63.70304,-64.70613 -35.03667,-35.05256 -63.49917,-63.91571 -63.25,-64.14032 0.34863,-0.31426 430.21233,-181.24679 435.70304,-183.39034 2.0252,-0.79063 1.43719,-3.74953 -1.24606,-6.27032 -1.37283,-1.2897 -2.342,-2.49897 -2.15371,-2.68726 0.18829,-0.18829 2.96915,0.81936 6.1797,2.23922 6.28174,2.77808 6.2479,2.77927 14.47007,-0.51016 l 5.5,-2.20038 -2.75,2.88216 c -2.93207,3.07298 -3.54436,5.7466 -1.5,6.54993 5.23519,2.05716 430.3523,183.06428 430.7068,183.38712 0.2513,0.22881 -27.5362,28.41177 -61.75,62.62881 C 1093.9931,405.51019 1066,434.17908 1066,435.0018 c 0,0.82271 71.212,72.70887 158.2488,159.74702 L 1382.4976,753 h -308.667 c -169.76686,0 -309.37883,0.27314 -310.24881,0.60699 -0.86999,0.33384 -1.58179,1.34595 -1.58179,2.24913 0,0.90317 96.39355,98.03647 214.2079,215.85178 117.8143,117.8153 214.0018,214.4084 213.75,214.6513 -0.2518,0.243 -89.3329,39.2209 -197.9579,86.6177 -227.87681,99.4303 -208.98642,91.1251 -209.04868,91.9097 -0.0268,0.3374 -0.1394,4.8884 -0.25028,10.1134 -0.16783,7.9088 -0.62028,10.3202 -2.70132,14.3971 -3.15252,6.1759 -9.54218,12.5205 -15.71338,15.6025 -5.39992,2.6969 -18.23784,3.7127 -24.14688,1.9107 z m 21.58122,-8.1478 c 4.96328,-2.2992 10.57149,-8.1819 12.8606,-13.4902 0.93111,-2.1592 1.64043,-6.5518 1.65879,-10.2723 0.0393,-7.9621 -2.70439,-14.3799 -8.31414,-19.448 -5.4594,-4.9322 -10.30629,-6.76 -17.92593,-6.76 -7.61964,0 -12.46653,1.8278 -17.92593,6.76 -11.315,10.2225 -11.27964,28.7055 0.0746,38.9633 8.10149,7.3192 19.42847,8.946 29.57206,4.2472 z m -20.64566,-0.4831 C 732.39291,1395.2132 725,1384.507 725,1375 c 0,-13.1034 11.89663,-25 25,-25 13.10337,0 25,11.8966 25,25 0,17.0575 -17.51346,29.0752 -33.92498,23.2794 z m 19.61558,-2.8125 c 11.25982,-5.611 15.60529,-19.4602 9.77629,-31.1575 C 766.59408,1356.5377 759.04925,1352 750,1352 c -9.04925,0 -16.59408,4.5377 -20.46689,12.3094 C 721.65084,1380.127 732.50858,1398 750,1398 c 3.99618,0 7.06787,-0.7278 10.6906,-2.5331 z M 736.41821,746.39301 C 737.2882,746.05917 738,745.04462 738,744.13845 738,742.41635 439.21845,443 437.5,443 435.76619,443 137,742.42448 137,744.16211 c 0,0.91917 0.5625,1.8982 1.25,2.17561 1.80108,0.72675 596.27522,0.7817 598.16821,0.0553 z M 139,743.74541 C 139,742.28124 436.03703,445 437.5,445 438.96297,445 736,742.28124 736,743.74541 736,744.74873 676.2156,745 437.5,745 198.7844,745 139,744.74873 139,743.74541 Z m 594,-0.99668 c 0,-0.13819 -66.48807,-66.73819 -147.75126,-148 L 437.49747,447 289.5,595 141.50253,743 H 437.25127 C 599.91307,743 733,742.88693 733,742.74873 Z m 628.4182,3.64428 c 0.87,-0.33384 1.5818,-1.34579 1.5818,-2.24876 C 1363,742.08988 1062.0558,441 1060.0025,441 1057.9321,441 757,742.09392 757,744.16542 c 0,0.91735 0.5625,1.89489 1.25,2.1723 1.80108,0.72675 601.2752,0.7817 603.1682,0.0553 z M 759,743.74544 C 759,741.95575 1058.2088,443 1060,443 c 1.7912,0 301,298.95575 301,300.74544 0,1.0033 -60.2834,1.25456 -301,1.25456 -240.7166,0 -301,-0.25126 -301,-1.25456 z M 1209.2496,593.75042 1060,444.50084 910.75042,593.75042 761.50084,743 H 1060 1358.4992 Z M 901.24228,589.25447 C 985.25903,505.24443 1054,435.83248 1054,435.0057 1054,433.03864 751.96382,131 749.99677,131 749.16863,131 679.70725,199.7893 595.63815,283.8651 461.57207,417.94188 442.91376,436.96188 443.83084,438.6151 445.31438,441.28951 746.30674,742 747.5001,742 c 0.54146,0 69.72544,-68.73549 153.74218,-152.74553 z m -305.48856,-0.008 C 463.24579,456.73835 444.91049,438.04418 445.82944,436.38751 447.71916,432.98073 748.47819,133 750.00409,133 c 0.81865,0 69.10263,67.61418 151.74218,150.25373 C 984.38582,365.89328 1052,434.17726 1052,434.99591 c 0,1.5259 -299.98073,302.28493 -303.38751,304.17465 -1.65667,0.91895 -20.35084,-17.41635 -152.85877,-149.92428 z M 900.25,284.75083 750.00082,134.50165 598.50041,285.99959 447,437.49752 597.24917,587.74918 747.49834,738.00083 898.99876,586.50042 1050.4992,435 Z m -315.37705,0.9299 c 87.8601,-87.90272 144.18636,-144.97882 143.89626,-145.81187 -0.26218,-0.75287 -1.33001,-1.21462 -2.37295,-1.02611 -1.04294,0.18851 -83.79626,34.77609 -183.89626,76.86129 -100.1,42.08519 -191.45,80.491 -203,85.34623 -15.43966,6.49031 -21.07367,9.30721 -21.27823,10.63871 -0.19118,1.24435 18.30833,20.38258 59.12292,61.16421 51.86875,51.82688 59.63918,59.22115 61.27823,58.31187 1.03239,-0.57273 66.84491,-66.04068 146.25003,-145.48433 z M 378.24947,371.75 C 346.18966,339.7125 320.08066,312.89003 320.22946,312.14451 320.37826,311.399 329.95,306.81571 341.5,301.95943 652.60911,171.15139 724.42035,141.08701 724.81483,141.48149 725.91433,142.58099 439.70301,430 437.50863,430 c -0.53274,0 -27.19936,-26.2125 -59.25916,-58.25 z M 719.62089,145.28756 c -0.1634,-0.16341 -88.68245,36.86891 -196.70899,82.29403 -108.02655,45.42512 -197.51293,83.02479 -198.85863,83.55482 -2.31799,0.91298 0.60198,4.01272 55.49773,58.91459 l 57.94445,57.95091 141.21127,-141.20862 C 656.37292,209.12854 719.7843,145.45096 719.62089,145.28756 Z m 399.73371,225.85789 c 39.3283,-39.33268 57.7356,-58.403 57.4967,-59.56767 -0.2534,-1.23582 -56.3405,-25.51555 -201.30929,-87.14545 C 865.01512,177.44455 773.77762,139 772.79201,139 771.8064,139 771,139.55881 771,140.2418 771,142.03866 1058.2001,429 1059.9985,429 c 0.8294,0 27.5396,-26.03455 59.3561,-57.85455 z M 916.50395,284.84304 C 828.81029,197.05488 775.07368,142.55045 776,142.33145 c 2.23039,-0.52729 398.4514,168.1883 398.7706,169.80127 C 1175.107,313.83188 1062.0177,427 1059.9834,427 c -0.8115,0 -65.37727,-63.97063 -143.47945,-142.15696 z m 200.45935,83.69367 56.4567,-56.46329 -3.96,-1.64767 C 1167.282,309.51953 1079.775,272.33066 975,227.7838 870.225,183.23695 783.375,146.36654 782,145.84956 780.625,145.33258 842.4994,207.92994 919.49866,284.9548 996.49792,361.97966 1059.7244,425 1060.002,425 c 0.2775,0 25.9101,-25.40848 56.9613,-56.46329 z"
       id="path848" />
  </g>
</svg>
